<?xml version="1.0" encoding="UTF-8" standalone="no"?>
<svg width="15px" height="9px" viewBox="0 0 15 9" version="1.1" xmlns="http://www.w3.org/2000/svg" xmlns:xlink="http://www.w3.org/1999/xlink" xmlns:sketch="http://www.bohemiancoding.com/sketch/ns">
    <!-- Generator: Sketch 3.3.2 (12043) - http://www.bohemiancoding.com/sketch -->
    <title>editor</title>
    <desc>Created with Sketch.</desc>
    <defs></defs>
    <g id="Page-1" stroke="none" stroke-width="1" fill="none" fill-rule="evenodd" sketch:type="MSPage">
        <g id="Preview" sketch:type="MSLayerGroup" transform="translate(1.000000, -1.000000)">
            <g id="Preview-icon" transform="translate(0.000000, 2.000000)" sketch:type="MSShapeGroup">
                <path d="M6.5,6.84210526 C10.0898509,6.84210526 13,3.42105263 13,3.42105263 C13,3.42105263 10.0898509,0 6.5,0 C2.91014913,0 -1.59204081e-16,3.42105263 0,3.42105263 C1.59204081e-16,3.42105263 2.91014913,6.84210526 6.5,6.84210526 Z" id="Oval-1" stroke="#979797" fill="#FFFCFC"></path>
                <path d="M6.5,6.15789474 C6.5,6.15789474 8.21052632,4.93256879 8.21052632,3.42105263 C8.21052632,1.90953647 6.5,0.684210526 6.5,0.684210526 C6.5,0.684210526 4.78947368,1.90953647 4.78947368,3.42105263 C4.78947368,4.93256879 6.5,6.15789474 6.5,6.15789474 Z" id="Oval-2" stroke="#A3A3A3" fill="#D6D6D6"></path>
            </g>
        </g>
        <rect id="Area" fill-opacity="0" fill="#FFFFFF" sketch:type="MSShapeGroup" x="-607" y="-67" width="702" height="660"></rect>
    </g>
</svg>